<svg width="42" height="42" viewBox="0 0 42 42" fill="none" xmlns="http://www.w3.org/2000/svg">
<path d="M21 41.25C17.2785 41.25 14.25 38.2215 14.25 34.5L14.3693 27.6307L7.5405 27.75C3.7785 27.75 0.75 24.7215 0.75 21C0.75 17.2785 3.7785 14.25 7.5 14.25L14.3693 14.1285L14.25 7.5405C14.25 3.7785 17.2785 0.75 21 0.75C24.7215 0.75 27.75 3.7785 27.75 7.5L27.8738 14.1285L34.5405 14.25C38.2215 14.25 41.25 17.2785 41.25 21C41.25 24.7215 38.2215 27.75 34.5 27.75L27.8738 27.6307L27.75 34.5405C27.75 38.2215 24.7215 41.25 21 41.25ZM18.75 23.25V34.5405C18.75 35.7397 19.7603 36.75 21 36.75C22.2397 36.75 23.25 35.7397 23.25 34.5V23.25H34.5405C35.7397 23.25 36.75 22.2397 36.75 21C36.75 19.7603 35.7397 18.75 34.5 18.75H23.25V7.5C23.25 6.21975 22.2397 5.25 21 5.25C19.7603 5.25 18.75 6.26025 18.75 7.5V18.75H7.5C6.21975 18.75 5.25 19.7603 5.25 21C5.25 22.2397 6.26025 23.25 7.5 23.25H18.75Z" fill="white"/>
</svg>
