<svg width="37" height="37" viewBox="0 0 37 37" fill="none" xmlns="http://www.w3.org/2000/svg">
<path fill-rule="evenodd" clip-rule="evenodd" d="M11.3741 1.84031C13.1613 1.75803 13.7312 1.73975 18.2838 1.73975C22.8365 1.73975 23.4063 1.75955 25.192 1.84031C26.9778 1.92106 28.1967 2.20598 29.2632 2.61889C30.3801 3.04094 31.3933 3.70068 32.2313 4.55392C33.0845 5.39041 33.7428 6.40211 34.1633 7.52047C34.5777 8.58702 34.8611 9.80594 34.9434 11.5886C35.0257 13.3789 35.044 13.9487 35.044 18.4999C35.044 23.0525 35.0242 23.6224 34.9434 25.4096C34.8626 27.1923 34.5777 28.4112 34.1633 29.4778C33.7427 30.5963 33.0834 31.6097 32.2313 32.4474C31.3933 33.3006 30.3801 33.9588 29.2632 34.3793C28.1967 34.7938 26.9778 35.0772 25.1951 35.1595C23.4063 35.2417 22.8365 35.26 18.2838 35.26C13.7312 35.26 13.1613 35.2402 11.3741 35.1595C9.5914 35.0787 8.37248 34.7938 7.30593 34.3793C6.18745 33.9588 5.17407 33.2995 4.33634 32.4474C3.48367 31.6104 2.82383 30.5975 2.40283 29.4793C1.98992 28.4127 1.70652 27.1938 1.62424 25.4111C1.54197 23.6209 1.52368 23.051 1.52368 18.4999C1.52368 13.9472 1.54349 13.3774 1.62424 11.5917C1.705 9.80594 1.98992 8.58702 2.40283 7.52047C2.82446 6.40223 3.4848 5.38936 4.33786 4.5524C5.17441 3.69992 6.18677 3.04009 7.30441 2.61889C8.37096 2.20598 9.58988 1.92258 11.3725 1.84031H11.3741ZM25.0564 4.85713C23.289 4.77638 22.7588 4.75962 18.2838 4.75962C13.8089 4.75962 13.2786 4.77638 11.5112 4.85713C9.87632 4.93179 8.98956 5.20452 8.39839 5.43459C7.61675 5.73932 7.05757 6.10043 6.47097 6.68703C5.91491 7.22801 5.48697 7.88657 5.21853 8.61445C4.98846 9.20562 4.71573 10.0924 4.64107 11.7273C4.56031 13.4947 4.54355 14.0249 4.54355 18.4999C4.54355 22.9748 4.56031 23.5051 4.64107 25.2725C4.71573 26.9074 4.98846 27.7941 5.21853 28.3853C5.48669 29.1121 5.91484 29.7718 6.47097 30.3127C7.01187 30.8689 7.67161 31.297 8.39839 31.5652C8.98956 31.7952 9.87632 32.068 11.5112 32.1426C13.2786 32.2234 13.8073 32.2401 18.2838 32.2401C22.7603 32.2401 23.289 32.2234 25.0564 32.1426C26.6913 32.068 27.5781 31.7952 28.1693 31.5652C28.9509 31.2604 29.5101 30.8993 30.0967 30.3127C30.6528 29.7718 31.0809 29.1121 31.3491 28.3853C31.5792 27.7941 31.8519 26.9074 31.9266 25.2725C32.0073 23.5051 32.0241 22.9748 32.0241 18.4999C32.0241 14.0249 32.0073 13.4947 31.9266 11.7273C31.8519 10.0924 31.5792 9.20562 31.3491 8.61445C31.0444 7.83282 30.6833 7.27364 30.0967 6.68703C29.5557 6.13101 28.8971 5.70308 28.1693 5.43459C27.5781 5.20452 26.6913 4.93179 25.0564 4.85713ZM16.1431 23.6666C17.3386 24.1642 18.6699 24.2314 19.9094 23.8566C21.149 23.4818 22.22 22.6883 22.9395 21.6115C23.659 20.5348 23.9823 19.2417 23.8544 17.953C23.7264 16.6644 23.1549 15.4602 22.2377 14.546C21.653 13.9617 20.946 13.5142 20.1676 13.2359C19.3892 12.9576 18.5587 12.8553 17.7361 12.9365C16.9134 13.0176 16.1189 13.2801 15.4099 13.7052C14.7009 14.1302 14.0949 14.7071 13.6356 15.3945C13.1763 16.0818 12.8752 16.8624 12.7538 17.6801C12.6324 18.4978 12.6938 19.3322 12.9336 20.1234C13.1734 20.9145 13.5856 21.6426 14.1406 22.2552C14.6956 22.8679 15.3795 23.3499 16.1431 23.6666ZM12.1923 12.4083C12.9922 11.6084 13.9419 10.9738 14.9871 10.5409C16.0323 10.108 17.1525 9.88513 18.2838 9.88513C19.4151 9.88513 20.5354 10.108 21.5805 10.5409C22.6257 10.9738 23.5754 11.6084 24.3754 12.4083C25.1753 13.2083 25.8099 14.158 26.2428 15.2032C26.6757 16.2483 26.8986 17.3686 26.8986 18.4999C26.8986 19.6312 26.6757 20.7514 26.2428 21.7966C25.8099 22.8418 25.1753 23.7915 24.3754 24.5914C22.7598 26.207 20.5686 27.1146 18.2838 27.1146C15.999 27.1146 13.8078 26.207 12.1923 24.5914C10.5767 22.9758 9.66907 20.7847 9.66907 18.4999C9.66907 16.2151 10.5767 14.0239 12.1923 12.4083ZM28.8092 11.1681C29.0074 10.9811 29.1661 10.7562 29.2759 10.5068C29.3857 10.2573 29.4443 9.98843 29.4482 9.71594C29.4522 9.44345 29.4015 9.17294 29.299 8.92041C29.1966 8.66789 29.0445 8.43848 28.8518 8.24578C28.6591 8.05309 28.4297 7.90101 28.1772 7.79856C27.9246 7.69611 27.6541 7.64537 27.3816 7.64934C27.1091 7.65332 26.8402 7.71192 26.5908 7.82169C26.3414 7.93146 26.1165 8.09015 25.9295 8.28839C25.5658 8.67391 25.3667 9.186 25.3744 9.71594C25.3822 10.2459 25.5961 10.7519 25.9709 11.1267C26.3456 11.5015 26.8517 11.7154 27.3816 11.7231C27.9116 11.7309 28.4237 11.5318 28.8092 11.1681Z" fill="white"/>
</svg>
