<svg width="79" height="80" viewBox="0 0 79 80" fill="none" xmlns="http://www.w3.org/2000/svg">
<path fill-rule="evenodd" clip-rule="evenodd" d="M43.5357 0.623167C52.5654 1.18549 61.0308 5.68411 67.2388 11.8697C74.5754 19.7423 78.526 29.3019 78.526 40.5484C78.526 49.5456 75.1398 57.9805 69.4962 65.2908C63.8526 72.0387 55.9516 77.0997 46.9218 78.7866C37.8921 80.4736 28.8624 79.349 20.9613 74.8503C13.0603 70.3517 6.85237 63.6038 3.46621 55.1689C0.0800594 46.734 -0.4843 37.1744 2.3375 28.7395C5.15929 19.7423 10.2385 12.432 18.1395 7.37109C25.4762 2.31015 34.506 0.0608403 43.5357 0.623167ZM46.3575 73.1634C53.6942 71.4764 60.4665 67.5401 65.5457 61.3545C70.0606 55.1689 72.8824 47.8586 72.318 39.9861C72.318 30.9888 68.9318 21.9916 62.7239 15.806C57.0803 10.1827 50.308 6.80877 42.407 6.24644C35.0703 5.68411 27.1693 7.37109 20.9613 11.8697C14.7534 16.3683 10.2385 22.5539 7.98108 30.4265C5.72365 37.7368 5.72365 45.6093 9.1098 52.9196C12.496 60.2298 17.5752 65.8531 24.3475 69.7894C31.1198 73.7257 39.0208 74.8503 46.3575 73.1634Z" fill="white"/>
<path fill-rule="evenodd" clip-rule="evenodd" d="M28.8618 23.1163L33.2469 20.777L58.6431 37.6468V42.3254L33.2469 59.1952L28.8618 56.8559V23.1163ZM34.5054 28.3684V51.6038L51.9949 39.9861L34.5054 28.3684Z" fill="white"/>
</svg>
