<svg width="42" height="41" viewBox="0 0 42 41" fill="none" xmlns="http://www.w3.org/2000/svg">
<path d="M38.198 4.14786C37.7117 3.74325 37.1247 3.4781 36.4996 3.38064C35.8744 3.28317 35.2346 3.35703 34.6481 3.59436L4.03309 15.9541C3.37855 16.2235 2.82139 16.6856 2.43553 17.279C2.04967 17.8724 1.85336 18.5691 1.87263 19.2766C1.89191 19.9842 2.12586 20.6691 2.54344 21.2407C2.96103 21.8122 3.54252 22.2432 4.21076 22.4766L10.4035 24.6308L13.8543 36.0459C13.9016 36.1982 13.97 36.3431 14.0576 36.4764C14.0713 36.4969 14.09 36.5105 14.1037 36.5327C14.2044 36.6729 14.3259 36.7967 14.4642 36.9C14.5028 36.9302 14.5427 36.9587 14.5838 36.9854C14.7456 37.0928 14.9247 37.1714 15.1133 37.2178L15.1355 37.2195L15.1458 37.2246C15.26 37.2475 15.3761 37.259 15.4926 37.2588L15.5233 37.2536C15.6983 37.2507 15.8717 37.2208 16.0375 37.1648C16.0768 37.1511 16.1093 37.1306 16.1469 37.1136C16.2709 37.0627 16.3885 36.9973 16.4971 36.9188C16.5836 36.8453 16.6702 36.7719 16.7568 36.6984L21.3727 31.6025L28.2572 36.9359C28.8632 37.4079 29.6092 37.6646 30.3773 37.6654C31.1823 37.6644 31.9626 37.3867 32.5871 36.8788C33.2117 36.3708 33.6426 35.6636 33.8076 34.8756L39.3819 7.51328C39.508 6.89769 39.4644 6.25942 39.2559 5.66666C39.0474 5.0739 38.6818 4.54894 38.198 4.14786ZM16.1691 25.174C15.9325 25.4101 15.7709 25.7108 15.7044 26.0384L15.1748 28.6078L13.8355 24.1781L20.7799 20.5615L16.1691 25.174ZM30.3517 34.235L22.2149 27.9313C21.8744 27.6685 21.4475 27.5437 21.0191 27.5817C20.5907 27.6197 20.1924 27.8177 19.9035 28.1363L18.4241 29.7677L18.9468 27.2274L31.047 15.1273C31.3341 14.8385 31.5085 14.4565 31.5389 14.0504C31.5692 13.6443 31.4535 13.2407 31.2126 12.9123C30.9716 12.584 30.6213 12.3525 30.2248 12.2597C29.8282 12.1668 29.4116 12.2187 29.0499 12.4059L11.6847 21.4464L5.32117 19.118L36.0353 6.83336L30.3517 34.235Z" fill="white"/>
</svg>
