<svg width="67" height="66" viewBox="0 0 67 66" fill="none" xmlns="http://www.w3.org/2000/svg">
<path d="M33.1373 66C14.868 66 0 51.1936 0 33C0 14.8065 14.868 0 33.1373 0C51.4065 0 66.2745 14.8065 66.2745 33C66.2745 51.1936 51.4065 66 33.1373 66ZM33.1373 2.41936C16.1961 2.41936 2.42942 16.1451 2.42942 33C2.42942 49.871 16.2123 63.5807 33.1373 63.5807C50.0622 63.5807 63.8451 49.8549 63.8451 33C63.8451 16.1451 50.0622 2.41936 33.1373 2.41936Z" fill="white"/>
<path d="M41.2941 21.323C38.2065 21.323 35.6863 18.8133 35.6863 15.7384C35.6863 12.6636 38.2065 10.1538 41.2941 10.1538C44.3817 10.1538 46.902 12.6636 46.902 15.7384C46.902 18.8133 44.3817 21.323 41.2941 21.323ZM41.2941 11.2341C38.8073 11.2341 36.7711 13.2453 36.7711 15.7384C36.7711 18.2316 38.7906 20.2426 41.2941 20.2426C43.7809 20.2426 45.8171 18.2316 45.8171 15.7384C45.8171 13.2453 43.7809 11.2341 41.2941 11.2341Z" fill="white"/>
<path d="M41.804 11.1694H40.7844V20.3079H41.804V11.1694Z" fill="white"/>
<path d="M46.9019 15.231H36.7058V16.2463H46.9019V15.231Z" fill="white"/>
<path d="M42.31 21.3233L41.804 20.4862C43.2811 19.3235 44.0471 17.7423 43.965 16.0061C43.8829 14.3629 43.0485 12.8126 41.845 12.0531L42.269 11.1694C43.7462 12.0996 44.7582 13.9753 44.854 15.9596C44.9634 18.0524 44.0471 19.9591 42.31 21.3233Z" fill="white"/>
<path d="M41.3563 21.3233C39.9294 20.5327 38.8662 18.5329 38.7543 16.4712C38.6425 14.3164 39.5517 12.4251 41.3003 11.1694L41.8039 12.022C40.3351 13.0762 39.5797 14.6419 39.6636 16.4246C39.7475 18.1144 40.6288 19.8041 41.762 20.4396L41.3563 21.3233Z" fill="white"/>
<path d="M22.424 23.963C20.8505 25.9517 19.9184 26.9901 19.7046 28.2924C19.5671 29.1196 19.2615 26.0397 19.4143 24.4207C19.5671 22.7311 19.8726 22.3264 20.3615 21.9744C20.6518 21.7632 21.3546 21.4992 22.0575 21.3232C22.0879 21.3232 22.2866 21.4816 22.3324 21.7456C22.3936 22.0448 22.2102 22.2032 22.1033 22.6784C21.9505 23.2591 22.5005 23.8574 22.424 23.963Z" fill="white"/>
<path d="M36.5209 35.2373C38.6939 34.5337 41.859 33.533 41.8748 33.5643C42.5519 34.2367 43.8746 35.3936 44.5202 36.7384C45.4649 38.6928 45.213 39.6153 45.2445 39.5997C45.4807 39.5059 47.6065 38.724 49.9054 37.7703C50.1417 35.3624 49.5748 34.7056 49.0867 33.9551C48.4411 32.9545 47.0396 32.0789 47.1184 31.4535C47.1499 31.2346 46.9294 30.5935 46.5043 30.4684C46.457 30.4528 46.394 30.4684 46.3782 30.4684C45.5436 30.703 37.4184 33.3297 35.8595 33.8145C35.3085 33.9865 36.2218 35.3311 36.5209 35.2373Z" fill="white"/>
<path d="M19.0175 38.5848C18.9109 38.9489 19.0352 39.8773 19.3724 40.2414C19.3901 40.2596 16.3731 41.1698 14.9711 41.625C14.7936 41.6795 14.3322 41.3337 14.279 40.7511C14.2435 40.296 14.4209 40.0593 14.6339 39.9865C16.4442 39.4039 19.0352 38.5666 19.0175 38.5848Z" fill="white"/>
<path d="M42.9221 22.4704C42.9063 22.5508 42.3524 24.4624 41.5295 24.6069C41.0073 24.7033 40.849 24.5106 40.7699 24.398C40.4218 23.9162 40.4534 22.9845 40.4376 22.9845C40.1369 23.113 39.9312 23.4985 39.8837 23.627C39.5988 24.3499 39.7413 24.7837 39.6463 25.1852C39.4406 26.0366 37.9689 26.8559 37.2885 26.7755C36.513 26.6953 36.1807 25.4743 34.7881 24.2375C34.1709 23.6912 33.348 23.0808 32.4935 22.7595C32.3669 22.7113 32.3194 22.4544 32.3353 22.2133C32.3353 22.1973 32.3353 22.1813 32.3353 22.1651C32.5093 22.0527 32.6676 21.9242 32.81 21.7796C33.6646 20.9765 34.1552 19.8198 34.2026 18.4223C34.2501 17.2014 33.7753 16.0126 32.8891 15.0649C31.813 13.9244 30.2622 13.2336 28.6164 13.2015C26.9865 13.1693 25.5306 13.7316 24.502 14.6633C24.2645 14.8561 24.138 15.0007 24.138 15.0007C23.1568 16.0608 22.9037 17.2336 22.8245 17.603C22.6821 18.2455 22.6663 18.7757 22.6821 19.0005C22.7138 19.6111 22.8087 20.109 23.1727 20.864C23.4259 21.3781 23.8215 21.6672 23.7107 21.9242C23.6633 22.0367 23.5525 22.0688 23.3942 22.3419C23.2992 22.4864 23.2835 22.5668 23.2676 22.615C23.2201 22.8077 23.2518 22.9523 23.2676 23.0166C23.3626 23.3861 23.679 23.5145 23.7582 23.6912C23.9955 24.2053 22.508 25.2977 21.7326 26.1812C20.53 27.5466 19.6437 29.651 19.4697 31.0646C19.1532 33.6509 19.6753 35.3698 20.1026 36.5103C20.1185 36.5425 20.2451 36.9119 20.2767 37.1529C20.3242 37.5545 20.2609 37.7633 20.2134 38.2131C20.1818 38.6468 20.2134 39.0323 20.2767 39.2573C20.4666 39.9159 21.0204 40.5103 21.7485 40.7191C21.9067 40.7673 22.7771 41.0403 23.5841 40.5263C23.9639 40.2853 24.0747 40.0122 24.1696 39.7874C24.2013 39.6909 24.2804 39.4018 24.2171 39.4018C24.0588 39.434 23.7107 39.4179 23.3151 39.1127C23.0461 38.9039 22.7771 38.438 22.7612 37.924C22.7454 37.6027 22.8245 37.3617 22.9037 37.185C22.9353 37.1369 22.9669 37.0243 23.1727 36.8156C23.2676 36.7031 23.4734 36.5907 23.4734 36.5907C23.4891 36.5425 23.236 36.3818 23.0777 36.0124C22.3814 34.3577 23.236 32.1248 23.7424 31.8517C23.8215 31.8036 23.1727 35.4982 25.0084 36.8156C25.0241 36.8316 23.9955 37.1529 23.9639 37.1689C23.8056 37.2974 23.6633 37.6509 23.7898 37.9882C23.9006 38.2613 24.1063 38.5986 24.5336 38.5505C24.6602 38.5344 25.4673 38.2613 25.4831 38.2613C25.5306 38.2613 25.6097 39.1448 25.2774 39.9159C25.1825 40.1408 24.9609 40.5906 24.4386 41.0565C24.407 41.0885 24.3912 41.1046 24.3912 41.1046C24.9134 42.0202 26.037 43.193 27.667 46.2933C27.8726 46.6788 27.9834 47.0322 28.0468 47.1928C28.0468 47.1928 28.0468 47.241 28.0468 47.2892C28.0942 48.0282 25.8945 49.6506 25.6097 51.2892C25.5464 51.6908 25.6097 52.0121 25.768 52.6547C26.2269 54.6145 27.7777 57.0722 29.1545 56.8474C30.1039 56.6867 30.8161 55.3051 30.9426 54.3092C31.0851 53.1366 30.5154 52.7831 30.7212 51.6748C30.9902 50.1647 32.2561 50.1005 33.1898 48.0603C33.6487 47.0483 33.7595 46.1647 33.7753 45.9398C34.0444 43.2894 32.351 41.5223 32.8575 41.2492C32.9841 41.1689 35.2629 41.9882 35.7534 43.707C36.339 45.7632 34.2184 47.225 35.0254 49.6346C35.247 50.2772 35.5951 50.6949 35.8167 50.9679C37.051 52.4136 39.2982 53.2811 40.0736 52.5422C40.6591 51.9799 40.4059 50.502 39.9786 49.8113C39.8995 49.6988 39.6938 49.3937 39.4564 49.0563C39.0767 48.5422 38.95 48.4458 38.8551 48.3174C38.2538 47.3696 40.1369 45.2973 40.7066 42.7913C40.7699 42.5504 40.849 42.1166 40.7699 41.5865C40.6749 40.8155 40.2951 40.2533 40.0578 39.932C38.6652 38.0686 36.1965 36.8476 34.9147 34.679C33.7437 32.6871 33.8703 30.406 34.3766 30.1811C34.8355 29.9723 35.6901 31.5144 37.32 31.418C37.4784 31.402 37.5891 31.3859 37.684 31.3699C39.0925 31.0968 40.4218 29.4101 41.5453 28.0125C42.4948 26.8398 42.5898 26.6791 43.3652 25.5225C43.6659 25.0728 43.745 24.9282 43.8241 24.4302C43.9981 23.0648 42.9221 22.4704 42.9221 22.4704ZM32.5252 16.3982C32.6992 16.6552 32.9207 17.1371 32.9207 17.1371C32.9682 17.2818 33.1423 17.7476 33.1265 18.3901C33.0949 19.4985 32.7308 20.366 32.082 20.9925C32.0346 21.0407 31.9871 21.0728 31.9397 21.121C31.6706 21.3298 31.3858 21.4905 31.0851 21.6351C30.642 21.8118 30.1198 21.9242 29.5501 21.9564C27.5562 21.9564 25.5306 20.8158 25.5306 18.6472C25.5306 17.7476 25.9262 16.8641 26.6383 16.1572C27.8093 15.0327 29.3919 15.1131 29.6767 15.1131C31.1484 15.1131 31.7813 15.5147 32.5252 16.3982Z" fill="white"/>
</svg>
